# xmcd
#
# Track frame offsets:
#	150
#	16070
#	28652
#	43775
#	59282
#	73470
#	88460
#	105337
#	121227
#	135930
#	151945
#
# Disc length: 2266 seconds
#
# Revision: 3
# Processed by: cddbd v1.4PL0 Copyright (c) Steve Scherf et al.
# Submitted via: EasyCDDAExtractor 6.0.0.1
#
DISCID=8d08d80b
DTITLE=Gibson Miller Band - Where There's Smoke
DYEAR=1993
DGENRE=Country
TTITLE0=High Rollin'
TTITLE1=Where There's Smoke
TTITLE2=Your Daddy Hates Me
TTITLE3=Small Price
TTITLE4=Texas Tattoo
TTITLE5=She's Gettin' A Rock
TTITLE6=Big Heart
TTITLE7=An Offer Her Heart Can't Refuse
TTITLE8=Thank Virginia
TTITLE9=Stone Cold Country
TTITLE10=Southern Man
EXTD=
EXTT0=
EXTT1=
EXTT2=
EXTT3=
EXTT4=
EXTT5=
EXTT6=
EXTT7=
EXTT8=
EXTT9=
EXTT10=
PLAYORDER=
